<?xml version="1.0" encoding="UTF-8" standalone="no"?>
<!-- Created with Inkscape (http://www.inkscape.org/) -->
<svg
   xmlns:dc="http://purl.org/dc/elements/1.1/"
   xmlns:cc="http://creativecommons.org/ns#"
   xmlns:rdf="http://www.w3.org/1999/02/22-rdf-syntax-ns#"
   xmlns:svg="http://www.w3.org/2000/svg"
   xmlns="http://www.w3.org/2000/svg"
   xmlns:sodipodi="http://sodipodi.sourceforge.net/DTD/sodipodi-0.dtd"
   xmlns:inkscape="http://www.inkscape.org/namespaces/inkscape"
   width="6000"
   height="4000"
   id="svg2"
   sodipodi:version="0.32"
   inkscape:version="0.46"
   version="1.0"
   sodipodi:docname="Kunst-01.svg"
   inkscape:output_extension="org.inkscape.output.svg.inkscape"
   preserveAspectRatio="none">
  <defs
     id="defs4">
    <inkscape:perspective
       sodipodi:type="inkscape:persp3d"
       inkscape:vp_x="0 : 526.18109 : 1"
       inkscape:vp_y="0 : 1000 : 0"
       inkscape:vp_z="744.09448 : 526.18109 : 1"
       inkscape:persp3d-origin="372.04724 : 350.78739 : 1"
       id="perspective10" />
  </defs>
  <sodipodi:namedview
     id="base"
     pagecolor="#ffffff"
     bordercolor="#666666"
     borderopacity="1.0"
     inkscape:pageopacity="0.0"
     inkscape:pageshadow="2"
     inkscape:zoom="0.089666667"
     inkscape:cx="3000"
     inkscape:cy="2000"
     inkscape:document-units="px"
     inkscape:current-layer="layer1"
     showgrid="false"
     inkscape:showpageshadow="false"
     inkscape:window-width="989"
     inkscape:window-height="691"
     inkscape:window-x="265"
     inkscape:window-y="281" />
  <metadata
     id="metadata7">
    <rdf:RDF>
      <cc:Work
         rdf:about="">
        <dc:format>image/svg+xml</dc:format>
        <dc:type
           rdf:resource="http://purl.org/dc/dcmitype/StillImage" />
      </cc:Work>
    </rdf:RDF>
  </metadata>
  <g
     inkscape:label="Ebene 1"
     inkscape:groupmode="layer"
     id="layer1">
    <path
       style="opacity:0.36111109;fill:#ff0000;fill-opacity:1;fill-rule:nonzero;stroke:none;stroke-width:30;stroke-linecap:round;stroke-linejoin:round;marker:none;marker-start:none;marker-mid:none;marker-end:none;stroke-miterlimit:4;stroke-dasharray:none;stroke-dashoffset:0;stroke-opacity:0.32618025;visibility:visible;display:inline;overflow:visible;enable-background:accumulate"
       d="M 4946.75 2817.75 C 3105.3707 2817.8291 1482.1193 3302.3809 785.25 4011.1562 L 5960.375 4011.1562 C 5982.3199 4011.1562 6000 3994.5675 6000 3973.9688 L 6000 2870.9375 C 5780.7919 2848.429 5554.9736 2832.7347 5323.6562 2824.4688 C 5197.1635 2819.9486 5071.4618 2817.7446 4946.75 2817.75 z "
       id="path3153" />
    <path
       style="opacity:0.36111109;fill:#ff0000;fill-opacity:1;fill-rule:nonzero;stroke:none;stroke-width:30;stroke-linecap:round;stroke-linejoin:round;marker:none;marker-start:none;marker-mid:none;marker-end:none;stroke-miterlimit:4;stroke-dasharray:none;stroke-dashoffset:0;stroke-opacity:0.32618025;visibility:visible;display:inline;overflow:visible;enable-background:accumulate"
       d="M 39.625 -3.71875 C 17.680083 -3.71875 -6.1294186e-17 12.869897 0 33.46875 L 0 783.875 C 179.67052 815.63519 375.30426 833.09376 579.9375 833.09375 C 1456.1738 833.09375 2167.3125 513.25158 2167.3125 119.15625 C 2167.3125 77.262868 2159.2601 36.201526 2143.8438 -3.71875 L 39.625 -3.71875 z "
       id="path3155" />
    <path
       style="opacity:0.36111109;fill:#ff0000;fill-opacity:1;fill-rule:nonzero;stroke:none;stroke-width:30;stroke-linecap:round;stroke-linejoin:round;marker:none;marker-start:none;marker-mid:none;marker-end:none;stroke-miterlimit:4;stroke-dasharray:none;stroke-dashoffset:0;stroke-opacity:0.32618025;visibility:visible;display:inline;overflow:visible;enable-background:accumulate"
       d="M 301.125 1122.6875 C 197.78783 1122.6875 97.026535 1137.5798 0 1165.875 L 0 3973.9688 C 0 3994.5676 17.680083 4011.1563 39.625 4011.1562 L 1493.7812 4011.1562 C 1630.7691 3720.5107 1710.0625 3376.3794 1710.0625 3007.625 C 1710.0625 1967.1356 1078.8633 1122.6875 301.125 1122.6875 z "
       id="path3157" />
    <path
       style="opacity:0.36111109000000002;fill:#ff00ff;fill-opacity:1;fill-rule:nonzero;stroke:none;stroke-width:30;stroke-linecap:round;stroke-linejoin:round;marker:none;marker-start:none;marker-mid:none;marker-end:none;stroke-miterlimit:4;stroke-dasharray:none;stroke-dashoffset:0;stroke-opacity:0.32618025000000000;visibility:visible;display:inline;overflow:visible;enable-background:accumulate"
       d="M 6000 2048.0625 C 4814.6558 2402.1415 4037.1876 2994.6649 4037.1875 3665.4375 C 4037.1875 3783.3837 4061.2146 3898.9192 4107.2812 4011.1562 L 5960.375 4011.1562 C 5982.3199 4011.1562 6000 3994.5675 6000 3973.9688 L 6000 2048.0625 z "
       id="path3159" />
    <path
       style="opacity:0.36111109000000002;fill:#800080;fill-opacity:1;fill-rule:nonzero;stroke:none;stroke-width:30;stroke-linecap:round;stroke-linejoin:round;marker:none;marker-start:none;marker-mid:none;marker-end:none;stroke-miterlimit:4;stroke-dasharray:none;stroke-dashoffset:0;stroke-opacity:0.32618025000000000;visibility:visible;display:inline;overflow:visible;enable-background:accumulate"
       d="M 2575.25 -3.71875 C 2418.9342 589.55359 2327.125 1312.8448 2327.125 2093.125 C 2327.125 2796.6425 2401.7733 3453.8194 2531.0312 4011.1562 L 4851.875 4011.1562 C 4981.1325 3453.8201 5055.7812 2796.6412 5055.7812 2093.125 C 5055.7812 1312.8449 4963.972 589.55359 4807.6562 -3.71875 L 2575.25 -3.71875 z "
       id="path3163" />
    <path
       style="opacity:0.36111109;fill:#ff0000;fill-opacity:1;fill-rule:nonzero;stroke:none;stroke-width:30;stroke-linecap:round;stroke-linejoin:round;marker:none;marker-start:none;marker-mid:none;marker-end:none;stroke-miterlimit:4;stroke-dasharray:none;stroke-dashoffset:0;stroke-opacity:0.32618025;visibility:visible;display:inline;overflow:visible;enable-background:accumulate"
       d="M 39.625 -3.71875 C 17.680083 -3.71875 -6.1294186e-17 12.869897 0 33.46875 L 0 2090.5938 C 385.89893 1763.3218 697.61567 989.39972 850.09375 -3.71875 L 39.625 -3.71875 z "
       id="path3161" />
    <path
       style="opacity:0.36111109000000002;fill:#00ff00;fill-opacity:1;fill-rule:nonzero;stroke:none;stroke-width:30;stroke-linecap:round;stroke-linejoin:round;marker:none;marker-start:none;marker-mid:none;marker-end:none;stroke-miterlimit:4;stroke-dasharray:none;stroke-dashoffset:0;stroke-opacity:0.32618025000000000;visibility:visible;display:inline;overflow:visible;enable-background:accumulate"
       d="M 1749.625,-3.71875 C 1792.7386,985.01329 2406.3226,1769.875 3156.125,1769.875 C 3905.9277,1769.875 4519.5432,985.01383 4562.6562,-3.71875 L 1749.625,-3.71875 z"
       id="path3165" />
    <path
       style="opacity:0.36111109000000002;fill:#800000;fill-opacity:1;fill-rule:nonzero;stroke:none;stroke-width:30;stroke-linecap:round;stroke-linejoin:round;marker:none;marker-start:none;marker-mid:none;marker-end:none;stroke-miterlimit:4;stroke-dasharray:none;stroke-dashoffset:0;stroke-opacity:0.32618025000000000;visibility:visible;display:inline;overflow:visible;enable-background:accumulate"
       d="M 5788.0938 319.6875 C 5010.3555 319.6875 4379.1562 1164.1669 4379.1562 2204.6562 C 4379.1562 3057.6931 4803.435 3778.9565 5384.875 4011.1562 L 5960.375 4011.1562 C 5982.3199 4011.1562 6000 3994.5675 6000 3973.9688 L 6000 340.90625 C 5930.8856 326.94177 5860.1053 319.6875 5788.0938 319.6875 z "
       id="path3167" />
    <path
       style="opacity:0.36111109000000002;fill:#0000ff;fill-opacity:1;fill-rule:nonzero;stroke:none;stroke-width:30;stroke-linecap:round;stroke-linejoin:round;marker:none;marker-start:none;marker-mid:none;marker-end:none;stroke-miterlimit:4;stroke-dasharray:none;stroke-dashoffset:0;stroke-opacity:0.32618025000000000;visibility:visible;display:inline;overflow:visible;enable-background:accumulate"
       d="M 4158.1875 -3.71875 C 3994.7084 108.52439 3899.5937 242.705 3899.5938 386.8125 C 3899.5938 780.90783 4610.7637 1100.7501 5487 1100.75 C 5666.4984 1100.75 5839.0514 1087.3266 6000 1062.5938 L 6000 33.46875 C 6000 12.869897 5982.32 -3.71875 5960.375 -3.71875 L 4158.1875 -3.71875 z "
       id="path3169" />
    <path
       style="opacity:0.36111109000000002;fill:#ffff00;fill-opacity:1;fill-rule:nonzero;stroke:none;stroke-width:30;stroke-linecap:round;stroke-linejoin:round;marker:none;marker-start:none;marker-mid:none;marker-end:none;stroke-miterlimit:4;stroke-dasharray:none;stroke-dashoffset:0;stroke-opacity:0.32618025000000000;visibility:visible;display:inline;overflow:visible;enable-background:accumulate"
       d="M 39.625 -3.71875 C 17.680083 -3.71875 -6.1294186e-17 12.869897 0 33.46875 L 0 3751.25 C 2374.9458 3691.1376 4260.2186 2836.3398 4260.2188 1791.8125 C 4260.2188 990.74465 3151.3646 301.28699 1563.1875 -3.71875 L 39.625 -3.71875 z "
       id="path3171" />
  </g>
</svg>
